<svg xmlns="http://www.w3.org/2000/svg" viewBox="311.0 327.2 827.5 271.8" width="827" height="272"><defs><linearGradient id="gh" gradientUnits="userSpaceOnUse" x1="780" y1="1320" x2="1480" y2="420"><stop offset="0" stop-color="#022454"/><stop offset=".3" stop-color="#05527A"/><stop offset="1" stop-color="#0A8AA3"/></linearGradient></defs><g transform="translate(330 345) scale(0.125)"><path fill="#022454" fill-rule="evenodd" d="M1013.0 104.0L953.0 172.0L81.0 1253.0L76.5 1267.0L76.5 1564.0L83.0 1570.5L921.0 1570.5L930.5 1576.0L930.5 1831.0L936.0 1838.0L1491.0 1838.0L1500.0 1829.0L1500.0 1571.5L1721.0 1571.5L1728.0 1564.0L1728.0 1259.0L1722.0 1252.5C1722.0 1252.5 1556.9 1253.1 1520.0 1252.5C1513.4 1252.4 1500.5 1249.0 1500.5 1249.0L1500.5 1006.0C1500.5 1006.0 1495.2 996.4 1491.0 993.0C1477.8 982.2 1421.0 941.0 1421.0 941.0L1410.0 945.0C1410.0 945.0 1366.6 1002.6 1342.0 1029.0C1312.5 1060.7 1269.5 1103.0 1233.0 1135.0C1198.0 1165.7 1160.8 1194.5 1123.0 1221.0C1085.3 1247.4 1046.1 1271.5 1006.0 1294.0C965.0 1317.0 920.0 1340.2 877.0 1359.0C835.0 1377.4 791.8 1393.4 748.0 1407.0C702.0 1421.3 642.7 1436.3 601.0 1445.0C567.1 1452.1 498.0 1459.0 498.0 1459.0C498.0 1459.0 592.0 1427.5 633.0 1412.0C670.5 1397.8 707.7 1383.0 744.0 1366.0C784.7 1347.0 833.4 1322.0 877.0 1298.0C922.3 1273.0 976.5 1241.5 1016.0 1216.0C1049.9 1194.1 1082.3 1169.9 1114.0 1145.0C1148.2 1118.2 1187.2 1087.0 1221.0 1055.0C1254.8 1023.0 1287.8 988.2 1317.0 953.0C1345.6 918.5 1396.0 844.0 1396.0 844.0L1488.0 903.0L1497.5 902.0L1497.5 437.0L1494.0 398.0L1470.0 410.0L1101.0 658.0L1106.0 667.0L1226.0 709.0L1230.0 718.0C1230.0 718.0 1195.6 780.8 1175.0 810.0C1146.2 851.0 1097.8 916.3 1057.0 964.0C1017.3 1010.4 960.0 1066.2 930.0 1096.0C913.3 1112.7 895.4 1128.2 877.0 1143.0C842.8 1170.5 777.0 1225.2 725.0 1261.0C673.6 1296.4 618.8 1330.2 565.0 1358.0C512.5 1385.2 442.3 1411.8 402.0 1428.0C376.2 1438.4 343.5 1448.7 323.0 1455.0C308.6 1459.5 279.0 1466.0 279.0 1466.0L271.0 1464.0C271.0 1464.0 275.6 1457.1 279.0 1455.0C298.8 1442.8 358.2 1411.0 390.0 1391.0C417.6 1373.7 470.0 1335.0 470.0 1335.0L929.0 798.0L933.5 800.0L933.5 984.0L941.0 989.0C941.0 989.0 1032.5 885.7 1064.0 846.0C1088.0 815.8 1130.0 751.0 1130.0 751.0L1126.0 744.0L950.0 691.0L946.0 683.0L1310.0 438.0L1310.0 108.0L1306.0 104.0L1013.0 104.0Z"/><path fill="url(#gh)" d="M1494.0 398.0L1470.0 410.0L1101.0 659.0L1106.0 667.0C1106.0 667.0 1191.3 695.8 1212.0 704.0C1218.7 706.7 1230.0 716.0 1230.0 716.0C1230.0 716.0 1195.8 780.3 1175.0 810.0C1145.3 852.3 1092.8 922.3 1052.0 970.0C1014.0 1014.4 973.1 1056.5 930.0 1096.0C882.7 1139.3 819.5 1191.5 768.0 1230.0C721.0 1265.2 621.0 1327.0 621.0 1327.0L624.0 1330.0L632.0 1326.0L642.0 1336.0L661.0 1336.0L665.0 1332.0L674.0 1336.0L689.0 1331.0L704.0 1344.0C704.0 1344.0 713.5 1337.5 719.0 1336.0C726.3 1334.0 748.0 1332.0 748.0 1332.0L763.0 1347.0C763.0 1347.0 757.7 1353.9 754.0 1356.0C747.2 1360.0 722.0 1371.0 722.0 1371.0L725.0 1374.0C725.0 1374.0 813.9 1332.4 857.0 1309.0C905.5 1282.7 973.2 1243.3 1016.0 1216.0C1050.0 1194.3 1082.3 1169.9 1114.0 1145.0C1148.2 1118.2 1187.2 1087.0 1221.0 1055.0C1254.8 1023.0 1287.5 988.2 1317.0 953.0C1346.1 918.3 1398.0 844.0 1398.0 844.0L1493.0 905.0L1497.5 901.0L1497.5 437.0L1494.0 398.0Z"/><path fill="#E1B76D" d="M1398.5 107.5L1398.5 286.5L1579.5 286.5L1579.5 107.5L1398.5 107.5Z"/></g><path fill="#022454" d="M620.2521008403361 405.0Q637.0546218487395 405.0 645.1302521008404 410.5357142857143Q653.2058823529412 416.07142857142856 653.2058823529412 427.92436974789916Q653.2058823529412 433.65546218487395 651.3172268907563 437.953781512605Q649.4285714285714 442.25210084033614 645.9768907563025 444.922268907563Q642.5252100840336 447.5924369747899 637.9663865546219 448.6344537815126V449.2857142857143Q643.046218487395 450.327731092437 647.0189075630252 452.86764705882354Q650.9915966386554 455.4075630252101 653.2058823529412 459.9012605042017Q655.4201680672269 464.39495798319325 655.4201680672269 471.16806722689074Q655.4201680672269 479.5042016806723 651.7731092436975 485.5609243697479Q648.1260504201681 491.61764705882354 641.2226890756303 494.80882352941177Q634.3193277310925 498.0 624.6806722689075 498.0H593.5504201680673V405.0ZM621.2941176470588 443.29411764705884Q629.7605042016806 443.29411764705884 633.1470588235294 439.84243697478996Q636.5336134453781 436.390756302521 636.5336134453781 430.00840336134456Q636.5336134453781 424.01680672268907 632.626050420168 421.0861344537815Q628.718487394958 418.15546218487395 620.3823529411765 418.15546218487395H609.8319327731092V443.29411764705884ZM609.8319327731092 456.05882352941177V484.7142857142857H622.8571428571429Q631.453781512605 484.7142857142857 635.0357142857142 480.74159663865544Q638.6176470588235 476.7689075630252 638.6176470588235 469.9957983193277Q638.6176470588235 465.69747899159665 636.9243697478992 462.57142857142856Q635.2310924369748 459.4453781512605 631.5840336134454 457.75210084033614Q627.936974789916 456.05882352941177 621.9453781512605 456.05882352941177ZM697.3613445378152 426.10084033613447Q706.2184873949581 426.10084033613447 712.4705882352941 429.9432773109244Q718.7226890756303 433.7857142857143 722.0441176470589 440.94957983193274Q725.3655462184875 448.11344537815125 725.3655462184875 458.0126050420168V466.47899159663865H683.5546218487395Q683.8151260504202 476.3781512605042 688.3088235294118 481.5882352941176Q692.8025210084035 486.79831932773106 701.3991596638656 486.79831932773106Q707.1302521008404 486.79831932773106 711.9495798319329 485.5609243697479Q716.7689075630253 484.3235294117647 721.9789915966387 481.718487394958V494.48319327731093Q717.1596638655462 496.9579831932773 711.9495798319329 498.1302521008403Q706.7394957983194 499.30252100840335 699.7058823529412 499.30252100840335Q689.8067226890757 499.30252100840335 682.577731092437 495.1344537815126Q675.3487394957983 490.96638655462186 671.5063025210084 482.82563025210084Q667.6638655462185 474.6848739495798 667.6638655462185 463.0924369747899Q667.6638655462185 451.109243697479 671.2457983193278 442.8382352941176Q674.827731092437 434.5672268907563 681.5357142857143 430.3340336134454Q688.2436974789916 426.10084033613447 697.3613445378152 426.10084033613447ZM697.4915966386556 438.0840336134454Q691.6302521008404 438.0840336134454 688.0483193277312 442.38235294117646Q684.4663865546219 446.68067226890753 683.8151260504202 455.2773109243698H710.2563025210085Q710.2563025210085 450.19747899159665 708.8886554621849 446.3550420168067Q707.5210084033614 442.5126050420168 704.7205882352941 440.29831932773106Q701.920168067227 438.0840336134454 697.4915966386556 438.0840336134454ZM765.6134453781513 486.2773109243698Q768.218487394958 486.2773109243698 770.7584033613446 485.7563025210084Q773.2983193277311 485.2352941176471 775.7731092436975 484.453781512605V496.43697478991595Q773.1680672268908 497.73949579831935 769.3256302521008 498.52100840336135Q765.483193277311 499.30252100840335 761.3151260504202 499.30252100840335Q755.453781512605 499.30252100840335 751.0903361344538 497.1533613445378Q746.7268907563025 495.0042016806723 744.2521008403362 490.1848739495798Q741.7773109243698 485.3655462184874 741.7773109243698 477.15966386554624V439.6470588235294H733.3109243697479V432.2226890756302L742.8193277310925 427.1428571428571L747.3781512605042 411.9033613445378H757.5378151260504V427.4033613445378H774.9915966386554V439.6470588235294H757.5378151260504V477.02941176470586Q757.5378151260504 481.718487394958 759.6869747899159 483.9978991596639Q761.8361344537815 486.2773109243698 765.6134453781513 486.2773109243698ZM813.6764705882352 486.2773109243698Q816.2815126050419 486.2773109243698 818.8214285714284 485.7563025210084Q821.3613445378151 485.2352941176471 823.8361344537815 484.453781512605V496.43697478991595Q821.2310924369748 497.73949579831935 817.3886554621849 498.52100840336135Q813.546218487395 499.30252100840335 809.3781512605042 499.30252100840335Q803.516806722689 499.30252100840335 799.1533613445378 497.1533613445378Q794.7899159663865 495.0042016806723 792.3151260504201 490.1848739495798Q789.8403361344538 485.3655462184874 789.8403361344538 477.15966386554624V439.6470588235294H781.3739495798319V432.2226890756302L790.8823529411765 427.1428571428571L795.4411764705882 411.9033613445378H805.6008403361344V427.4033613445378H823.0546218487394V439.6470588235294H805.6008403361344V477.02941176470586Q805.6008403361344 481.718487394958 807.75 483.9978991596639Q809.8991596638655 486.2773109243698 813.6764705882352 486.2773109243698ZM862.781512605042 426.10084033613447Q871.6386554621849 426.10084033613447 877.8907563025211 429.9432773109244Q884.1428571428572 433.7857142857143 887.4642857142858 440.94957983193274Q890.7857142857143 448.11344537815125 890.7857142857143 458.0126050420168V466.47899159663865H848.9747899159664Q849.2352941176471 476.3781512605042 853.7289915966387 481.5882352941176Q858.2226890756303 486.79831932773106 866.8193277310925 486.79831932773106Q872.5504201680673 486.79831932773106 877.3697478991596 485.5609243697479Q882.1890756302521 484.3235294117647 887.3991596638656 481.718487394958V494.48319327731093Q882.5798319327731 496.9579831932773 877.3697478991596 498.1302521008403Q872.1596638655462 499.30252100840335 865.1260504201681 499.30252100840335Q855.2268907563026 499.30252100840335 847.9978991596639 495.1344537815126Q840.7689075630252 490.96638655462186 836.9264705882354 482.82563025210084Q833.0840336134454 474.6848739495798 833.0840336134454 463.0924369747899Q833.0840336134454 451.109243697479 836.6659663865546 442.8382352941176Q840.2478991596639 434.5672268907563 846.9558823529412 430.3340336134454Q853.6638655462185 426.10084033613447 862.781512605042 426.10084033613447ZM862.9117647058824 438.0840336134454Q857.0504201680673 438.0840336134454 853.468487394958 442.38235294117646Q849.8865546218487 446.68067226890753 849.2352941176471 455.2773109243698H875.6764705882354Q875.6764705882354 450.19747899159665 874.3088235294118 446.3550420168067Q872.9411764705883 442.5126050420168 870.1407563025211 440.29831932773106Q867.3403361344539 438.0840336134454 862.9117647058824 438.0840336134454ZM939.2394957983194 425.97058823529414Q941.063025210084 425.97058823529414 943.0168067226891 426.1659663865546Q944.9705882352941 426.3613445378151 946.5336134453781 426.88235294117646L944.8403361344538 442.25210084033614Q943.40756302521 441.8613445378151 941.6491596638655 441.6008403361344Q939.890756302521 441.34033613445376 937.6764705882354 441.34033613445376Q934.5504201680673 441.34033613445376 931.6197478991596 442.6428571428571Q928.6890756302521 443.9453781512605 926.4096638655462 446.55042016806726Q924.1302521008404 449.15546218487395 922.827731092437 452.86764705882354Q921.5252100840336 456.5798319327731 921.5252100840336 461.52941176470586V498.0H905.6344537815127V427.2731092436975H917.8781512605042L920.09243697479 439.38655462184875H920.8739495798319Q922.6974789915967 435.73949579831935 925.4327731092437 432.67857142857144Q928.1680672268908 429.61764705882354 931.6848739495799 427.79411764705884Q935.2016806722689 425.97058823529414 939.2394957983194 425.97058823529414ZM1044.4831932773109 478.20168067226894H1033.5420168067228V498.0H1017.9117647058824V478.20168067226894H980.2689075630252V466.3487394957983L1018.1722689075631 404.73949579831935H1033.5420168067228V465.1764705882353H1044.4831932773109ZM1017.9117647058824 442.7731092436975Q1017.9117647058824 440.55882352941177 1017.9768907563025 437.8235294117647Q1018.0420168067227 435.0882352941176 1018.1722689075631 432.2878151260504Q1018.3025210084035 429.48739495798316 1018.4327731092437 427.2079831932773Q1018.5630252100841 424.92857142857144 1018.5630252100841 423.75630252100837H1018.1722689075631Q1017.1302521008404 426.3613445378151 1015.827731092437 429.03151260504205Q1014.5252100840337 431.70168067226894 1012.9621848739496 434.1764705882353L994.3361344537816 465.1764705882353H1017.9117647058824Z"/><rect x="581" y="520.5" width="532.5" height="2" fill="#022454"/><path fill="#022454" d="M601.6974789915967 575.0H586.6974789915967V545.0H601.6974789915967V548.2773109243698H590.3949579831933V557.7310924369748H601.0252100840336V560.9663865546219H590.3949579831933V571.7226890756302H601.6974789915967ZM617.1596638655462 552.0588235294117Q620.7310924369748 552.0588235294117 622.5378151260504 553.9915966386554Q624.344537815126 555.9243697478992 624.344537815126 560.1260504201681V575.0H620.7731092436975V560.5042016806723Q620.7731092436975 557.8151260504202 619.7647058823529 556.4705882352941Q618.7563025210085 555.1260504201681 616.5294117647059 555.1260504201681Q613.3781512605042 555.1260504201681 612.1176470588235 557.1638655462185Q610.8571428571429 559.2016806722689 610.8571428571429 563.3193277310925V575.0H607.2857142857143V552.4789915966387H610.1428571428572L610.6470588235294 555.546218487395H610.8571428571429Q611.5294117647059 554.3697478991596 612.4957983193277 553.59243697479Q613.4621848739496 552.8151260504202 614.6806722689075 552.4369747899159Q615.8991596638656 552.0588235294117 617.1596638655462 552.0588235294117ZM637.5378151260504 572.3949579831933Q638.2941176470588 572.3949579831933 639.0294117647059 572.2478991596638Q639.7647058823529 572.1008403361344 640.3109243697479 571.9327731092437V574.7478991596639Q639.6806722689075 575.0420168067227 638.7142857142857 575.2310924369748Q637.7478991596638 575.4201680672269 636.7394957983194 575.4201680672269Q635.1008403361344 575.4201680672269 633.7983193277311 574.7899159663866Q632.4957983193277 574.1596638655462 631.7394957983192 572.7100840336134Q630.9831932773109 571.2605042016806 630.9831932773109 568.781512605042V555.3361344537815H628.1680672268908V553.5294117647059L631.0672268907563 552.2689075630252L632.3277310924369 547.3109243697479H634.5546218487394V552.4789915966387H640.0588235294117V555.3361344537815H634.5546218487394V568.5714285714286Q634.5546218487394 570.5042016806723 635.3319327731092 571.4495798319329Q636.109243697479 572.3949579831933 637.5378151260504 572.3949579831933ZM652.2016806722689 552.0588235294117Q654.890756302521 552.0588235294117 656.7605042016806 553.3403361344538Q658.6302521008403 554.6218487394958 659.6176470588234 556.890756302521Q660.6050420168067 559.1596638655462 660.6050420168067 562.1428571428571V564.4117647058823H646.90756302521Q646.9915966386554 568.3193277310925 648.609243697479 570.3361344537816Q650.2268907563025 572.3529411764706 653.2941176470588 572.3529411764706Q655.0588235294117 572.3529411764706 656.5504201680671 571.9747899159663Q658.0420168067227 571.5966386554621 659.6386554621848 570.7983193277311V573.9495798319327Q658.1260504201681 574.7058823529412 656.5714285714286 575.0630252100841Q655.016806722689 575.4201680672269 653.0420168067227 575.4201680672269Q649.9747899159663 575.4201680672269 647.7689075630251 574.0336134453781Q645.563025210084 572.6470588235294 644.40756302521 570.0630252100841Q643.2521008403361 567.4789915966387 643.2521008403361 563.90756302521Q643.2521008403361 560.1680672268908 644.3235294117646 557.5210084033613Q645.3949579831933 554.8739495798319 647.4117647058824 553.4663865546217Q649.4285714285714 552.0588235294117 652.2016806722689 552.0588235294117ZM652.1596638655462 555.0Q649.8487394957983 555.0 648.5252100840337 556.6806722689075Q647.2016806722689 558.3613445378152 646.9495798319327 561.5546218487395H656.9495798319327Q656.9495798319327 559.6638655462185 656.4453781512605 558.1932773109244Q655.9411764705882 556.7226890756302 654.8907563025209 555.8613445378151Q653.8403361344538 555.0 652.1596638655462 555.0ZM675.2689075630252 552.0588235294117Q675.8571428571429 552.0588235294117 676.5084033613446 552.1218487394958Q677.1596638655462 552.1848739495798 677.6638655462185 552.3109243697479L677.2016806722689 555.7563025210084Q676.6974789915967 555.6302521008404 676.1302521008404 555.546218487395Q675.563025210084 555.4621848739496 675.0168067226891 555.4621848739496Q673.8823529411765 555.4621848739496 672.8529411764706 556.0084033613446Q671.8235294117648 556.5546218487395 671.046218487395 557.5840336134454Q670.2689075630252 558.6134453781513 669.827731092437 560.0Q669.3865546218487 561.3865546218487 669.3865546218487 563.0672268907563V575.0H665.8151260504202V552.4789915966387H668.6722689075631L669.1344537815125 556.4705882352941H669.3025210084033Q669.9327731092437 555.2100840336135 670.8151260504202 554.2016806722689Q671.6974789915967 553.1932773109244 672.8319327731092 552.626050420168Q673.9663865546219 552.0588235294117 675.2689075630252 552.0588235294117ZM691.3193277310925 552.0588235294117Q695.1428571428572 552.0588235294117 697.3697478991597 554.9579831932773Q699.5966386554622 557.8571428571429 699.5966386554622 563.6974789915967Q699.5966386554622 567.4789915966387 698.5882352941177 570.1050420168067Q697.5798319327731 572.7310924369748 695.7310924369749 574.0756302521008Q693.8823529411766 575.4201680672269 691.3613445378152 575.4201680672269Q689.8487394957983 575.4201680672269 688.6512605042017 574.9789915966387Q687.4537815126051 574.5378151260504 686.5714285714287 573.781512605042Q685.6890756302522 573.0252100840336 685.0588235294118 572.1008403361344H684.8487394957983Q684.9327731092437 572.8571428571429 684.9957983193278 573.8235294117646Q685.0588235294118 574.7899159663865 685.0588235294118 575.546218487395V585.0840336134454H681.4873949579833V552.4789915966387H684.3865546218487L684.890756302521 555.546218487395H685.0588235294118Q685.7310924369748 554.453781512605 686.59243697479 553.6764705882354Q687.4537815126051 552.8991596638656 688.6302521008404 552.4789915966387Q689.8067226890757 552.0588235294117 691.3193277310925 552.0588235294117ZM690.6050420168068 555.0840336134454Q688.6722689075631 555.0840336134454 687.453781512605 555.9453781512605Q686.2352941176471 556.8067226890756 685.6680672268908 558.5504201680671Q685.1008403361345 560.2941176470588 685.0588235294118 562.9831932773109V563.7394957983194Q685.0588235294118 566.5966386554621 685.6050420168068 568.5294117647059Q686.1512605042018 570.4621848739496 687.3697478991597 571.4285714285714Q688.5882352941177 572.3949579831933 690.6890756302522 572.3949579831933Q692.4537815126051 572.3949579831933 693.6092436974791 571.3235294117646Q694.764705882353 570.2521008403361 695.3319327731093 568.2983193277311Q695.8991596638656 566.344537815126 695.8991596638656 563.6974789915967Q695.8991596638656 559.6218487394958 694.6176470588236 557.3529411764706Q693.3361344537816 555.0840336134454 690.6050420168068 555.0840336134454ZM714.4285714285714 552.0588235294117Q715.0168067226891 552.0588235294117 715.6680672268908 552.1218487394958Q716.3193277310925 552.1848739495798 716.8235294117648 552.3109243697479L716.3613445378152 555.7563025210084Q715.8571428571429 555.6302521008404 715.2899159663866 555.546218487395Q714.7226890756302 555.4621848739496 714.1764705882354 555.4621848739496Q713.0420168067227 555.4621848739496 712.0126050420168 556.0084033613446Q710.983193277311 556.5546218487395 710.2058823529412 557.5840336134454Q709.4285714285714 558.6134453781513 708.9873949579833 560.0Q708.546218487395 561.3865546218487 708.546218487395 563.0672268907563V575.0H704.9747899159664V552.4789915966387H707.8319327731093L708.2941176470588 556.4705882352941H708.4621848739496Q709.09243697479 555.2100840336135 709.9747899159664 554.2016806722689Q710.8571428571429 553.1932773109244 711.9915966386554 552.626050420168Q713.1260504201681 552.0588235294117 714.4285714285714 552.0588235294117ZM724.218487394958 552.4789915966387V575.0H720.6470588235294V552.4789915966387ZM722.4957983193277 543.9915966386554Q723.3781512605042 543.9915966386554 723.9663865546217 544.5798319327731Q724.5546218487394 545.1680672268908 724.5546218487394 546.3865546218487Q724.5546218487394 547.563025210084 723.9663865546217 548.1512605042017Q723.3781512605042 548.7394957983194 722.4957983193277 548.7394957983194Q721.5714285714286 548.7394957983194 720.9621848739496 548.1512605042017Q720.3529411764705 547.563025210084 720.3529411764705 546.3865546218487Q720.3529411764705 545.1680672268908 720.9411764705882 544.5798319327731Q721.5294117647059 543.9915966386554 722.4957983193277 543.9915966386554ZM743.7563025210084 568.8235294117648Q743.7563025210084 570.9663865546219 742.7899159663865 572.4369747899159Q741.8235294117646 573.90756302521 740.0378151260504 574.6638655462184Q738.2521008403361 575.4201680672269 735.7310924369748 575.4201680672269Q733.672268907563 575.4201680672269 732.1176470588234 575.0420168067227Q730.563025210084 574.6638655462185 729.3865546218487 574.0336134453781V570.6302521008404Q730.563025210084 571.344537815126 732.2647058823529 571.8697478991596Q733.9663865546219 572.3949579831933 735.7310924369748 572.3949579831933Q738.0840336134454 572.3949579831933 739.1764705882354 571.5126050420168Q740.2689075630252 570.6302521008404 740.2689075630252 569.1176470588235Q740.2689075630252 568.2352941176471 739.8487394957983 567.5630252100841Q739.4285714285714 566.890756302521 738.3991596638655 566.2394957983194Q737.3697478991596 565.5882352941177 735.5210084033613 564.7899159663865Q733.6302521008404 563.90756302521 732.2436974789916 563.046218487395Q730.8571428571429 562.1848739495798 730.1008403361345 560.9873949579832Q729.344537815126 559.7899159663865 729.344537815126 557.9831932773109Q729.344537815126 555.2100840336135 731.4663865546219 553.6344537815125Q733.5882352941177 552.0588235294117 737.0336134453781 552.0588235294117Q738.8823529411765 552.0588235294117 740.4579831932773 552.4369747899159Q742.0336134453781 552.8151260504202 743.4621848739496 553.5294117647059L742.2016806722689 556.3865546218487Q740.9831932773109 555.7983193277311 739.6386554621848 555.4201680672269Q738.2941176470588 555.0420168067227 736.8655462184873 555.0420168067227Q734.9327731092437 555.0420168067227 733.8613445378151 555.7983193277312Q732.7899159663865 556.5546218487395 732.7899159663865 557.8151260504202Q732.7899159663865 558.7394957983194 733.2731092436975 559.390756302521Q733.7563025210084 560.0420168067227 734.8487394957983 560.6512605042017Q735.9411764705882 561.2605042016806 737.7899159663865 562.1008403361344Q739.6386554621848 562.9411764705883 740.9831932773109 563.8025210084033Q742.3277310924369 564.6638655462185 743.0420168067226 565.8613445378151Q743.7563025210084 567.0588235294117 743.7563025210084 568.8235294117648ZM756.5714285714287 552.0588235294117Q759.2605042016808 552.0588235294117 761.1302521008404 553.3403361344538Q763.0 554.6218487394958 763.9873949579833 556.890756302521Q764.9747899159664 559.1596638655462 764.9747899159664 562.1428571428571V564.4117647058823H751.2773109243698Q751.3613445378152 568.3193277310925 752.9789915966387 570.3361344537816Q754.5966386554622 572.3529411764706 757.6638655462185 572.3529411764706Q759.4285714285714 572.3529411764706 760.920168067227 571.9747899159663Q762.4117647058824 571.5966386554621 764.0084033613446 570.7983193277311V573.9495798319327Q762.4957983193278 574.7058823529412 760.9411764705883 575.0630252100841Q759.3865546218487 575.4201680672269 757.4117647058824 575.4201680672269Q754.3445378151262 575.4201680672269 752.1386554621849 574.0336134453781Q749.9327731092437 572.6470588235294 748.7773109243698 570.0630252100841Q747.6218487394958 567.4789915966387 747.6218487394958 563.90756302521Q747.6218487394958 560.1680672268908 748.6932773109245 557.5210084033613Q749.764705882353 554.8739495798319 751.781512605042 553.4663865546217Q753.7983193277312 552.0588235294117 756.5714285714287 552.0588235294117ZM756.529411764706 555.0Q754.2184873949581 555.0 752.8949579831933 556.6806722689075Q751.5714285714287 558.3613445378152 751.3193277310925 561.5546218487395H761.3193277310925Q761.3193277310925 559.6638655462185 760.8151260504202 558.1932773109244Q760.3109243697479 556.7226890756302 759.2605042016808 555.8613445378151Q758.2100840336135 555.0 756.529411764706 555.0ZM795.8151260504202 566.890756302521Q795.8151260504202 569.5378151260504 794.6386554621849 571.4285714285714Q793.4621848739496 573.3193277310925 791.2773109243698 574.3697478991596Q789.09243697479 575.4201680672269 786.1512605042017 575.4201680672269Q784.6386554621849 575.4201680672269 783.2731092436975 575.2521008403362Q781.9075630252102 575.0840336134454 780.7521008403362 574.7899159663866Q779.5966386554622 574.4957983193277 778.6302521008404 574.0336134453781V570.4201680672269Q780.1428571428571 571.1344537815125 782.1596638655462 571.6386554621848Q784.1764705882354 572.1428571428571 786.1932773109244 572.1428571428571Q788.1260504201681 572.1428571428571 789.4495798319329 571.5126050420167Q790.7731092436975 570.8823529411765 791.4453781512605 569.7689075630252Q792.1176470588235 568.655462184874 792.1176470588235 567.2268907563025Q792.1176470588235 565.7563025210084 791.5714285714286 564.7478991596638Q791.0252100840336 563.7394957983194 789.6806722689075 562.8991596638655Q788.3361344537815 562.0588235294117 785.983193277311 561.09243697479Q784.2605042016806 560.3781512605042 782.9369747899159 559.5798319327731Q781.6134453781513 558.781512605042 780.7310924369748 557.7521008403362Q779.8487394957983 556.7226890756302 779.40756302521 555.3991596638655Q778.9663865546219 554.0756302521008 778.9663865546219 552.3109243697479Q778.9243697478992 549.9579831932773 780.0588235294117 548.2142857142858Q781.1932773109244 546.4705882352941 783.2100840336134 545.5252100840337Q785.2268907563025 544.5798319327731 787.8319327731093 544.5798319327731Q790.0588235294118 544.5798319327731 791.9285714285714 545.0420168067227Q793.7983193277311 545.5042016806723 795.2689075630252 546.1764705882352L794.1344537815127 549.4117647058823Q792.6638655462185 548.7394957983194 791.0672268907563 548.3193277310925Q789.4705882352941 547.8991596638656 787.7899159663866 547.8991596638656Q786.1512605042017 547.8991596638656 784.9957983193277 548.4453781512605Q783.8403361344538 548.9915966386554 783.2731092436975 549.9789915966387Q782.7058823529412 550.9663865546219 782.7058823529412 552.2689075630252Q782.7058823529412 553.8235294117648 783.2521008403362 554.8109243697479Q783.7983193277311 555.7983193277311 785.0798319327731 556.5966386554621Q786.3613445378152 557.3949579831933 788.546218487395 558.3193277310925Q790.9411764705883 559.3277310924369 792.5588235294118 560.4831932773109Q794.1764705882354 561.6386554621848 794.9957983193278 563.172268907563Q795.8151260504202 564.7058823529412 795.8151260504202 566.890756302521ZM818.546218487395 563.6974789915967Q818.546218487395 566.4705882352941 817.9159663865546 568.6134453781513Q817.2857142857143 570.7563025210084 816.0672268907563 572.2899159663866Q814.8487394957983 573.8235294117648 813.0840336134454 574.6218487394958Q811.3193277310925 575.4201680672269 809.09243697479 575.4201680672269Q806.9915966386554 575.4201680672269 805.2689075630252 574.6218487394958Q803.546218487395 573.8235294117648 802.327731092437 572.3109243697479Q801.109243697479 570.7983193277311 800.4369747899159 568.6344537815125Q799.7647058823529 566.4705882352941 799.7647058823529 563.6974789915967Q799.7647058823529 559.9579831932773 800.8781512605042 557.3739495798319Q801.9915966386554 554.7899159663865 804.09243697479 553.4243697478992Q806.1932773109244 552.0588235294117 809.1764705882354 552.0588235294117Q811.9915966386554 552.0588235294117 814.09243697479 553.4033613445379Q816.1932773109244 554.7478991596639 817.3697478991596 557.3319327731092Q818.546218487395 559.9159663865546 818.546218487395 563.6974789915967ZM803.4621848739496 563.6974789915967Q803.4621848739496 566.4285714285714 804.0714285714287 568.3823529411765Q804.6806722689076 570.3361344537815 805.9411764705883 571.3655462184875Q807.2016806722689 572.3949579831933 809.1764705882354 572.3949579831933Q811.109243697479 572.3949579831933 812.3697478991596 571.3655462184875Q813.6302521008404 570.3361344537815 814.2394957983194 568.3823529411765Q814.8487394957983 566.4285714285714 814.8487394957983 563.6974789915967Q814.8487394957983 560.9243697478992 814.2394957983194 559.0126050420167Q813.6302521008404 557.1008403361344 812.3697478991596 556.1134453781513Q811.109243697479 555.1260504201681 809.1344537815127 555.1260504201681Q806.1512605042017 555.1260504201681 804.8067226890756 557.3529411764706Q803.4621848739496 559.5798319327731 803.4621848739496 563.6974789915967ZM827.453781512605 575.0H823.8823529411765V543.0672268907563H827.453781512605ZM850.8991596638656 552.4789915966387V575.0H848.0L847.4957983193277 572.0168067226891H847.2857142857142Q846.655462184874 573.1512605042017 845.6680672268908 573.90756302521Q844.6806722689075 574.6638655462185 843.5042016806722 575.0420168067227Q842.3277310924369 575.4201680672269 840.9831932773109 575.4201680672269Q838.546218487395 575.4201680672269 836.9495798319329 574.4957983193277Q835.3529411764706 573.5714285714286 834.5546218487395 571.7436974789916Q833.7563025210084 569.9159663865546 833.7563025210084 567.1848739495798V552.4789915966387H837.3697478991596V566.8067226890756Q837.3697478991596 569.6218487394958 838.3991596638655 570.9873949579833Q839.4285714285714 572.3529411764706 841.5714285714286 572.3529411764706Q843.7142857142857 572.3529411764706 844.9747899159663 571.4285714285714Q846.2352941176471 570.5042016806723 846.781512605042 568.718487394958Q847.3277310924369 566.9327731092437 847.3277310924369 564.2857142857143V552.4789915966387ZM864.2184873949581 572.3949579831933Q864.9747899159664 572.3949579831933 865.7100840336135 572.2478991596638Q866.4453781512606 572.1008403361344 866.9915966386556 571.9327731092437V574.7478991596639Q866.3613445378152 575.0420168067227 865.3949579831933 575.2310924369748Q864.4285714285714 575.4201680672269 863.420168067227 575.4201680672269Q861.781512605042 575.4201680672269 860.4789915966387 574.7899159663866Q859.1764705882354 574.1596638655462 858.420168067227 572.7100840336134Q857.6638655462185 571.2605042016806 857.6638655462185 568.781512605042V555.3361344537815H854.8487394957984V553.5294117647059L857.7478991596639 552.2689075630252L859.0084033613446 547.3109243697479H861.2352941176471V552.4789915966387H866.7394957983194V555.3361344537815H861.2352941176471V568.5714285714286Q861.2352941176471 570.5042016806723 862.0126050420168 571.4495798319329Q862.7899159663866 572.3949579831933 864.2184873949581 572.3949579831933ZM874.6386554621849 552.4789915966387V575.0H871.0672268907564V552.4789915966387ZM872.9159663865547 543.9915966386554Q873.7983193277312 543.9915966386554 874.3865546218487 544.5798319327731Q874.9747899159664 545.1680672268908 874.9747899159664 546.3865546218487Q874.9747899159664 547.563025210084 874.3865546218487 548.1512605042017Q873.7983193277312 548.7394957983194 872.9159663865547 548.7394957983194Q871.9915966386556 548.7394957983194 871.3823529411766 548.1512605042017Q870.7731092436975 547.563025210084 870.7731092436975 546.3865546218487Q870.7731092436975 545.1680672268908 871.3613445378152 544.5798319327731Q871.9495798319329 543.9915966386554 872.9159663865547 543.9915966386554ZM898.7983193277311 563.6974789915967Q898.7983193277311 566.4705882352941 898.1680672268908 568.6134453781513Q897.5378151260504 570.7563025210084 896.3193277310925 572.2899159663866Q895.1008403361344 573.8235294117648 893.3361344537815 574.6218487394958Q891.5714285714286 575.4201680672269 889.344537815126 575.4201680672269Q887.2436974789915 575.4201680672269 885.5210084033613 574.6218487394958Q883.7983193277311 573.8235294117648 882.579831932773 572.3109243697479Q881.3613445378151 570.7983193277311 880.6890756302521 568.6344537815125Q880.016806722689 566.4705882352941 880.016806722689 563.6974789915967Q880.016806722689 559.9579831932773 881.1302521008403 557.3739495798319Q882.2436974789915 554.7899159663865 884.3445378151259 553.4243697478992Q886.4453781512605 552.0588235294117 889.4285714285714 552.0588235294117Q892.2436974789915 552.0588235294117 894.3445378151259 553.4033613445379Q896.4453781512605 554.7478991596639 897.6218487394958 557.3319327731092Q898.7983193277311 559.9159663865546 898.7983193277311 563.6974789915967ZM883.7142857142857 563.6974789915967Q883.7142857142857 566.4285714285714 884.3235294117646 568.3823529411765Q884.9327731092437 570.3361344537815 886.1932773109244 571.3655462184875Q887.453781512605 572.3949579831933 889.4285714285714 572.3949579831933Q891.3613445378151 572.3949579831933 892.6218487394958 571.3655462184875Q893.8823529411765 570.3361344537815 894.4915966386554 568.3823529411765Q895.1008403361344 566.4285714285714 895.1008403361344 563.6974789915967Q895.1008403361344 560.9243697478992 894.4915966386554 559.0126050420167Q893.8823529411765 557.1008403361344 892.6218487394958 556.1134453781513Q891.3613445378151 555.1260504201681 889.3865546218487 555.1260504201681Q886.4033613445378 555.1260504201681 885.0588235294117 557.3529411764706Q883.7142857142857 559.5798319327731 883.7142857142857 563.6974789915967ZM914.0084033613446 552.0588235294117Q917.5798319327731 552.0588235294117 919.3865546218487 553.9915966386554Q921.1932773109244 555.9243697478992 921.1932773109244 560.1260504201681V575.0H917.6218487394958V560.5042016806723Q917.6218487394958 557.8151260504202 916.6134453781513 556.4705882352941Q915.6050420168068 555.1260504201681 913.3781512605042 555.1260504201681Q910.2268907563025 555.1260504201681 908.9663865546219 557.1638655462185Q907.7058823529412 559.2016806722689 907.7058823529412 563.3193277310925V575.0H904.1344537815127V552.4789915966387H906.9915966386556L907.4957983193277 555.546218487395H907.7058823529412Q908.3781512605042 554.3697478991596 909.344537815126 553.59243697479Q910.3109243697479 552.8151260504202 911.5294117647059 552.4369747899159Q912.7478991596639 552.0588235294117 914.0084033613446 552.0588235294117ZM940.6050420168068 568.8235294117648Q940.6050420168068 570.9663865546219 939.6386554621849 572.4369747899159Q938.6722689075631 573.90756302521 936.8865546218487 574.6638655462184Q935.1008403361345 575.4201680672269 932.5798319327732 575.4201680672269Q930.5210084033614 575.4201680672269 928.966386554622 575.0420168067227Q927.4117647058824 574.6638655462185 926.2352941176472 574.0336134453781V570.6302521008404Q927.4117647058824 571.344537815126 929.1134453781514 571.8697478991596Q930.8151260504203 572.3949579831933 932.5798319327732 572.3949579831933Q934.9327731092438 572.3949579831933 936.0252100840337 571.5126050420168Q937.1176470588236 570.6302521008404 937.1176470588236 569.1176470588235Q937.1176470588236 568.2352941176471 936.6974789915968 567.5630252100841Q936.2773109243699 566.890756302521 935.247899159664 566.2394957983194Q934.2184873949581 565.5882352941177 932.3697478991597 564.7899159663865Q930.4789915966388 563.90756302521 929.0924369747901 563.046218487395Q927.7058823529413 562.1848739495798 926.9495798319329 560.9873949579832Q926.1932773109245 559.7899159663865 926.1932773109245 557.9831932773109Q926.1932773109245 555.2100840336135 928.3151260504203 553.6344537815125Q930.4369747899161 552.0588235294117 933.8823529411766 552.0588235294117Q935.7310924369749 552.0588235294117 937.3067226890757 552.4369747899159Q938.8823529411766 552.8151260504202 940.310924369748 553.5294117647059L939.0504201680674 556.3865546218487Q937.8319327731093 555.7983193277311 936.4873949579833 555.4201680672269Q935.1428571428572 555.0420168067227 933.7142857142858 555.0420168067227Q931.7815126050422 555.0420168067227 930.7100840336136 555.7983193277312Q929.6386554621849 556.5546218487395 929.6386554621849 557.8151260504202Q929.6386554621849 558.7394957983194 930.1218487394958 559.390756302521Q930.6050420168068 560.0420168067227 931.6974789915967 560.6512605042017Q932.7899159663866 561.2605042016806 934.6386554621849 562.1008403361344Q936.4873949579833 562.9411764705883 937.8319327731093 563.8025210084033Q939.1764705882354 564.6638655462185 939.8907563025211 565.8613445378151Q940.6050420168068 567.0588235294117 940.6050420168068 568.8235294117648ZM955.8151260504202 575.0V545.0H959.5126050420168V571.6806722689075H970.8571428571429V575.0ZM975.4789915966387 575.0V545.0H979.1764705882354V571.6806722689075H990.5210084033614V575.0ZM1002.2016806722688 545.0Q1007.579831932773 545.0 1010.0588235294117 547.2689075630252Q1012.5378151260504 549.5378151260504 1012.5378151260504 553.8235294117648Q1012.5378151260504 555.8403361344538 1011.9495798319327 557.5630252100841Q1011.3613445378151 559.2857142857143 1010.079831932773 560.5882352941177Q1008.7983193277311 561.890756302521 1006.7394957983192 562.6050420168067Q1004.6806722689075 563.3193277310925 1001.7394957983192 563.3193277310925H998.8403361344538V575.0H995.1428571428571V545.0ZM1001.9495798319327 548.1932773109244H998.8403361344538V560.1260504201681H1001.3613445378151Q1003.8823529411765 560.1260504201681 1005.5210084033613 559.5168067226891Q1007.1596638655461 558.90756302521 1007.9579831932772 557.5420168067226Q1008.7563025210084 556.1764705882352 1008.7563025210084 553.9495798319327Q1008.7563025210084 550.9663865546219 1007.1176470588234 549.5798319327731Q1005.4789915966386 548.1932773109244 1001.9495798319327 548.1932773109244Z"/></svg>